<svg xmlns="http://www.w3.org/2000/svg" xmlns:xlink="http://www.w3.org/1999/xlink" width="202" zoomAndPan="magnify" viewBox="0 0 151.5 107.999999" height="144" preserveAspectRatio="xMidYMid meet" version="1.0"><defs><filter x="0%" y="0%" width="100%" height="100%" id="6d91a827f7"><feColorMatrix values="0 0 0 0 1 0 0 0 0 1 0 0 0 0 1 0 0 0 1 0" color-interpolation-filters="sRGB"/></filter><g/><clipPath id="d3d9bf2121"><path d="M 3 0.175781 L 147 0.175781 L 147 107.820312 L 3 107.820312 Z M 3 0.175781 " clip-rule="nonzero"/></clipPath><clipPath id="f0dce58972"><path d="M 19 4 L 126 4 L 126 107.582031 L 19 107.582031 Z M 19 4 " clip-rule="nonzero"/></clipPath><mask id="7bddd9ac72"><g filter="url(#6d91a827f7)"><rect x="-36.33" width="218.16" fill="#000000" y="-23.76" height="155.519998" fill-opacity="0.9"/></g></mask><clipPath id="f4321d8731"><path d="M 0.484375 1.089844 L 106.457031 1.089844 L 106.457031 103.582031 L 0.484375 103.582031 Z M 0.484375 1.089844 " clip-rule="nonzero"/></clipPath><clipPath id="33faa28378"><rect x="0" width="107" y="0" height="104"/></clipPath><mask id="2cf268f999"><g filter="url(#6d91a827f7)"><rect x="-36.33" width="218.16" fill="#000000" y="-23.76" height="155.519998" fill-opacity="0.9"/></g></mask><clipPath id="2cc886bc3f"><path d="M 2 2.386719 L 106 2.386719 L 106 96.402344 L 2 96.402344 Z M 2 2.386719 " clip-rule="nonzero"/></clipPath><clipPath id="5400229821"><path d="M 3.078125 55.675781 C 9.714844 57.082031 11.4375 57.886719 13.40625 58.871094 C 15.933594 60.066406 18.851562 61.683594 21.695312 63.4375 C 24.855469 65.371094 28.4375 67.828125 31.496094 70.042969 C 34.304688 72.078125 36.941406 74.152344 39.363281 76.152344 C 41.542969 77.980469 43.332031 79.457031 45.371094 81.527344 C 47.792969 83.988281 51.027344 87.605469 52.816406 90.0625 C 54.046875 91.75 55.417969 93.542969 55.523438 94.59375 C 55.59375 95.121094 55.382812 95.578125 55.101562 95.824219 C 54.855469 96.035156 54.363281 96.105469 54.011719 96.070312 C 53.660156 96.035156 53.273438 95.964844 53.027344 95.613281 C 52.429688 94.734375 52.253906 91.785156 52.675781 89.152344 C 53.378906 84.621094 56.960938 77.558594 59.632812 71.339844 C 62.617188 64.316406 66.515625 56.167969 69.925781 49.210938 C 73.015625 42.925781 76.140625 36.742188 79.128906 31.402344 C 81.621094 26.871094 84.046875 22.65625 86.398438 19.109375 C 88.332031 16.226562 90.15625 13.699219 92.019531 11.484375 C 93.5625 9.660156 95.214844 7.972656 96.65625 6.707031 C 97.746094 5.796875 98.515625 5.164062 99.710938 4.460938 C 101.152344 3.6875 103.75 2.386719 104.734375 2.421875 C 105.191406 2.421875 105.542969 2.597656 105.648438 2.84375 C 105.789062 3.089844 105.648438 3.652344 105.472656 3.863281 C 105.296875 4.039062 104.945312 4.109375 104.699219 4.039062 C 104.488281 4.003906 104.207031 3.757812 104.136719 3.511719 C 104.03125 3.300781 104.101562 2.949219 104.242188 2.738281 C 104.347656 2.5625 104.699219 2.386719 104.910156 2.386719 C 105.15625 2.386719 105.507812 2.5625 105.613281 2.773438 C 105.753906 3.019531 105.789062 3.476562 105.542969 3.792969 C 105.015625 4.53125 102.03125 5.023438 100.660156 5.796875 C 99.535156 6.390625 98.832031 6.988281 97.816406 7.867188 C 96.445312 9.0625 94.828125 10.675781 93.320312 12.46875 C 91.492188 14.613281 89.699219 17.105469 87.839844 19.949219 C 85.519531 23.5 83.097656 27.679688 80.601562 32.175781 C 77.652344 37.480469 74.5625 43.660156 71.46875 49.949219 C 68.097656 56.871094 64.234375 65.054688 61.28125 72.007812 C 58.683594 78.050781 55.277344 85.007812 54.503906 89.1875 C 54.082031 91.433594 55.066406 94.246094 54.574219 94.59375 C 54.328125 94.769531 53.90625 94.488281 53.554688 94.210938 C 52.921875 93.71875 52.535156 92.3125 51.589844 91.082031 C 50.007812 88.90625 46.671875 85.144531 44.316406 82.722656 C 42.28125 80.683594 40.523438 79.210938 38.378906 77.417969 C 35.992188 75.453125 33.355469 73.378906 30.582031 71.375 C 27.597656 69.164062 24.011719 66.773438 20.886719 64.84375 C 18.113281 63.15625 15.230469 61.542969 12.773438 60.347656 C 10.839844 59.433594 9.261719 58.660156 7.46875 58.132812 C 5.851562 57.640625 3.289062 57.816406 2.550781 57.253906 C 2.269531 57.011719 2.09375 56.625 2.164062 56.378906 C 2.234375 56.097656 3.078125 55.675781 3.078125 55.675781 " clip-rule="nonzero"/></clipPath><clipPath id="930ff3a8f1"><path d="M 0 0.386719 L 103.800781 0.386719 L 103.800781 94.253906 L 0 94.253906 Z M 0 0.386719 " clip-rule="nonzero"/></clipPath><clipPath id="a3e9e2e5e8"><path d="M 1.078125 53.675781 C 7.714844 55.082031 9.4375 55.886719 11.40625 56.871094 C 13.933594 58.066406 16.851562 59.683594 19.695312 61.4375 C 22.855469 63.371094 26.4375 65.828125 29.496094 68.042969 C 32.304688 70.078125 34.941406 72.152344 37.363281 74.152344 C 39.542969 75.980469 41.332031 77.457031 43.371094 79.527344 C 45.792969 81.988281 49.027344 85.605469 50.816406 88.0625 C 52.046875 89.75 53.417969 91.542969 53.523438 92.59375 C 53.59375 93.121094 53.382812 93.578125 53.101562 93.824219 C 52.855469 94.035156 52.363281 94.105469 52.011719 94.070312 C 51.660156 94.035156 51.273438 93.964844 51.027344 93.613281 C 50.429688 92.734375 50.253906 89.785156 50.675781 87.152344 C 51.378906 82.621094 54.960938 75.558594 57.632812 69.339844 C 60.617188 62.316406 64.515625 54.167969 67.925781 47.210938 C 71.015625 40.925781 74.140625 34.742188 77.128906 29.402344 C 79.621094 24.871094 82.046875 20.65625 84.398438 17.109375 C 86.332031 14.226562 88.15625 11.699219 90.019531 9.484375 C 91.5625 7.660156 93.214844 5.972656 94.65625 4.707031 C 95.746094 3.796875 96.515625 3.164062 97.710938 2.460938 C 99.152344 1.6875 101.75 0.386719 102.734375 0.421875 C 103.191406 0.421875 103.542969 0.597656 103.648438 0.84375 C 103.789062 1.089844 103.648438 1.652344 103.472656 1.863281 C 103.296875 2.039062 102.945312 2.109375 102.699219 2.039062 C 102.488281 2.003906 102.207031 1.757812 102.136719 1.511719 C 102.03125 1.300781 102.101562 0.949219 102.242188 0.738281 C 102.347656 0.5625 102.699219 0.386719 102.910156 0.386719 C 103.15625 0.386719 103.507812 0.5625 103.613281 0.773438 C 103.753906 1.019531 103.789062 1.476562 103.542969 1.792969 C 103.015625 2.53125 100.03125 3.023438 98.660156 3.796875 C 97.535156 4.390625 96.832031 4.988281 95.816406 5.867188 C 94.445312 7.0625 92.828125 8.675781 91.320312 10.46875 C 89.492188 12.613281 87.699219 15.105469 85.839844 17.949219 C 83.519531 21.5 81.097656 25.679688 78.601562 30.175781 C 75.652344 35.480469 72.5625 41.660156 69.46875 47.949219 C 66.097656 54.871094 62.234375 63.054688 59.28125 70.007812 C 56.683594 76.050781 53.277344 83.007812 52.503906 87.1875 C 52.082031 89.433594 53.066406 92.246094 52.574219 92.59375 C 52.328125 92.769531 51.90625 92.488281 51.554688 92.210938 C 50.921875 91.71875 50.535156 90.3125 49.589844 89.082031 C 48.007812 86.90625 44.671875 83.144531 42.316406 80.722656 C 40.28125 78.683594 38.523438 77.210938 36.378906 75.417969 C 33.992188 73.453125 31.355469 71.378906 28.582031 69.375 C 25.597656 67.164062 22.011719 64.773438 18.886719 62.84375 C 16.113281 61.15625 13.230469 59.542969 10.773438 58.347656 C 8.839844 57.433594 7.261719 56.660156 5.46875 56.132812 C 3.851562 55.640625 1.289062 55.816406 0.550781 55.253906 C 0.269531 55.011719 0.09375 54.625 0.164062 54.378906 C 0.234375 54.097656 1.078125 53.675781 1.078125 53.675781 " clip-rule="nonzero"/></clipPath><clipPath id="a4edc93b3e"><rect x="0" width="104" y="0" height="95"/></clipPath><clipPath id="f9a4306a0f"><rect x="0" width="108" y="0" height="98"/></clipPath><clipPath id="2b8e2a06c5"><path d="M 23 0.175781 L 131 0.175781 L 131 98 L 23 98 Z M 23 0.175781 " clip-rule="nonzero"/></clipPath><mask id="d07fc0a439"><g filter="url(#6d91a827f7)"><rect x="-36.33" width="218.16" fill="#000000" y="-23.76" height="155.519998" fill-opacity="0.9"/></g></mask><clipPath id="39b9eec27a"><path d="M 2 1.582031 L 106 1.582031 L 106 95.597656 L 2 95.597656 Z M 2 1.582031 " clip-rule="nonzero"/></clipPath><clipPath id="a10c0e3751"><path d="M 3.207031 54.871094 C 9.847656 56.273438 11.566406 57.082031 13.535156 58.066406 C 16.0625 59.261719 18.980469 60.875 21.824219 62.632812 C 24.984375 64.566406 28.570312 67.023438 31.625 69.238281 C 34.433594 71.273438 37.070312 73.347656 39.492188 75.347656 C 41.671875 77.175781 43.460938 78.652344 45.5 80.722656 C 47.921875 83.183594 51.15625 86.800781 52.945312 89.257812 C 54.175781 90.945312 55.546875 92.738281 55.652344 93.789062 C 55.722656 94.316406 55.511719 94.773438 55.230469 95.019531 C 54.984375 95.230469 54.492188 95.300781 54.140625 95.265625 C 53.789062 95.230469 53.402344 95.160156 53.15625 94.808594 C 52.558594 93.929688 52.382812 90.980469 52.804688 88.347656 C 53.507812 83.816406 57.089844 76.753906 59.761719 70.535156 C 62.746094 63.511719 66.644531 55.363281 70.054688 48.40625 C 73.144531 42.117188 76.269531 35.9375 79.257812 30.597656 C 81.75 26.066406 84.175781 21.851562 86.527344 18.304688 C 88.460938 15.421875 90.285156 12.894531 92.148438 10.679688 C 93.695312 8.855469 95.34375 7.167969 96.785156 5.902344 C 97.875 4.988281 98.644531 4.359375 99.839844 3.65625 C 101.28125 2.882812 103.878906 1.582031 104.863281 1.617188 C 105.320312 1.617188 105.671875 1.792969 105.777344 2.039062 C 105.917969 2.285156 105.777344 2.847656 105.601562 3.058594 C 105.425781 3.234375 105.074219 3.304688 104.828125 3.234375 C 104.617188 3.199219 104.335938 2.953125 104.265625 2.707031 C 104.160156 2.496094 104.230469 2.144531 104.371094 1.933594 C 104.476562 1.757812 104.828125 1.582031 105.039062 1.582031 C 105.285156 1.582031 105.636719 1.757812 105.742188 1.96875 C 105.882812 2.214844 105.917969 2.671875 105.671875 2.988281 C 105.144531 3.726562 102.160156 4.21875 100.789062 4.988281 C 99.664062 5.585938 98.960938 6.183594 97.945312 7.0625 C 96.574219 8.257812 94.957031 9.871094 93.449219 11.664062 C 91.621094 13.808594 89.828125 16.300781 87.96875 19.144531 C 85.648438 22.695312 83.226562 26.875 80.730469 31.371094 C 77.78125 36.675781 74.691406 42.855469 71.597656 49.144531 C 68.226562 56.0625 64.363281 64.25 61.410156 71.203125 C 58.8125 77.246094 55.40625 84.199219 54.632812 88.382812 C 54.210938 90.628906 55.195312 93.4375 54.703125 93.789062 C 54.457031 93.964844 54.035156 93.683594 53.683594 93.402344 C 53.050781 92.914062 52.664062 91.507812 51.71875 90.277344 C 50.136719 88.101562 46.800781 84.339844 44.445312 81.917969 C 42.410156 79.878906 40.652344 78.40625 38.507812 76.613281 C 36.121094 74.644531 33.484375 72.574219 30.710938 70.570312 C 27.726562 68.359375 24.140625 65.96875 21.015625 64.039062 C 18.242188 62.351562 15.359375 60.734375 12.902344 59.542969 C 10.96875 58.628906 9.390625 57.855469 7.597656 57.328125 C 5.980469 56.835938 3.417969 57.011719 2.679688 56.449219 C 2.398438 56.203125 2.222656 55.820312 2.292969 55.574219 C 2.363281 55.292969 3.207031 54.871094 3.207031 54.871094 " clip-rule="nonzero"/></clipPath><clipPath id="bec4296672"><path d="M 0 0.582031 L 104 0.582031 L 104 94.382812 L 0 94.382812 Z M 0 0.582031 " clip-rule="nonzero"/></clipPath><clipPath id="22beac0258"><path d="M 1.207031 53.871094 C 7.847656 55.273438 9.566406 56.082031 11.535156 57.066406 C 14.0625 58.261719 16.980469 59.875 19.824219 61.632812 C 22.984375 63.566406 26.570312 66.023438 29.625 68.238281 C 32.433594 70.273438 35.070312 72.347656 37.492188 74.347656 C 39.671875 76.175781 41.460938 77.652344 43.5 79.722656 C 45.921875 82.183594 49.15625 85.800781 50.945312 88.257812 C 52.175781 89.945312 53.546875 91.738281 53.652344 92.789062 C 53.722656 93.316406 53.511719 93.773438 53.230469 94.019531 C 52.984375 94.230469 52.492188 94.300781 52.140625 94.265625 C 51.789062 94.230469 51.402344 94.160156 51.15625 93.808594 C 50.558594 92.929688 50.382812 89.980469 50.804688 87.347656 C 51.507812 82.816406 55.089844 75.753906 57.761719 69.535156 C 60.746094 62.511719 64.644531 54.363281 68.054688 47.40625 C 71.144531 41.117188 74.269531 34.9375 77.257812 29.597656 C 79.75 25.066406 82.175781 20.851562 84.527344 17.304688 C 86.460938 14.421875 88.285156 11.894531 90.148438 9.679688 C 91.695312 7.855469 93.34375 6.167969 94.785156 4.902344 C 95.875 3.988281 96.644531 3.359375 97.839844 2.65625 C 99.28125 1.882812 101.878906 0.582031 102.863281 0.617188 C 103.320312 0.617188 103.671875 0.792969 103.777344 1.039062 C 103.917969 1.285156 103.777344 1.847656 103.601562 2.058594 C 103.425781 2.234375 103.074219 2.304688 102.828125 2.234375 C 102.617188 2.199219 102.335938 1.953125 102.265625 1.707031 C 102.160156 1.496094 102.230469 1.144531 102.371094 0.933594 C 102.476562 0.757812 102.828125 0.582031 103.039062 0.582031 C 103.285156 0.582031 103.636719 0.757812 103.742188 0.96875 C 103.882812 1.214844 103.917969 1.671875 103.671875 1.988281 C 103.144531 2.726562 100.160156 3.21875 98.789062 3.988281 C 97.664062 4.585938 96.960938 5.183594 95.945312 6.0625 C 94.574219 7.257812 92.957031 8.871094 91.449219 10.664062 C 89.621094 12.808594 87.828125 15.300781 85.96875 18.144531 C 83.648438 21.695312 81.226562 25.875 78.730469 30.371094 C 75.78125 35.675781 72.691406 41.855469 69.597656 48.144531 C 66.226562 55.0625 62.363281 63.25 59.410156 70.203125 C 56.8125 76.246094 53.40625 83.199219 52.632812 87.382812 C 52.210938 89.628906 53.195312 92.4375 52.703125 92.789062 C 52.457031 92.964844 52.035156 92.683594 51.683594 92.402344 C 51.050781 91.914062 50.664062 90.507812 49.71875 89.277344 C 48.136719 87.101562 44.800781 83.339844 42.445312 80.917969 C 40.410156 78.878906 38.652344 77.40625 36.507812 75.613281 C 34.121094 73.644531 31.484375 71.574219 28.710938 69.570312 C 25.726562 67.359375 22.140625 64.96875 19.015625 63.039062 C 16.242188 61.351562 13.359375 59.734375 10.902344 58.542969 C 8.96875 57.628906 7.390625 56.855469 5.597656 56.328125 C 3.980469 55.835938 1.417969 56.011719 0.679688 55.449219 C 0.398438 55.203125 0.222656 54.820312 0.292969 54.574219 C 0.363281 54.292969 1.207031 53.871094 1.207031 53.871094 " clip-rule="nonzero"/></clipPath><clipPath id="00af579a24"><rect x="0" width="104" y="0" height="95"/></clipPath><clipPath id="c339196707"><rect x="0" width="108" y="0" height="98"/></clipPath><clipPath id="aee7afc937"><path d="M 0.828125 44 L 143.636719 44 L 143.636719 68 L 0.828125 68 Z M 0.828125 44 " clip-rule="nonzero"/></clipPath><clipPath id="bea8ed7e32"><rect x="0" width="144" y="0" height="24"/></clipPath><clipPath id="33eed378e2"><rect x="0" width="144" y="0" height="108"/></clipPath></defs><g clip-path="url(#d3d9bf2121)"><g transform="matrix(1, 0, 0, 1, 3, 0.000000000000016764)"><g clip-path="url(#33eed378e2)"><g clip-path="url(#f0dce58972)"><g mask="url(#7bddd9ac72)"><g transform="matrix(1, 0, 0, 1, 19, 4)"><g clip-path="url(#33faa28378)"><g clip-path="url(#f4321d8731)"><path fill="#ffffff" d="M 20.582031 15.957031 C 19.367188 16.964844 18.246094 18.046875 17.222656 19.203125 C 17.714844 18.695312 18.222656 18.1875 18.75 17.675781 C 19.214844 17.222656 19.824219 16.648438 20.582031 15.957031 M 15.628906 16.914062 C 14.804688 17.652344 14.070312 18.355469 13.433594 19.019531 C 12.792969 19.6875 12.222656 20.328125 11.71875 20.949219 C 12.859375 19.660156 14.160156 18.316406 15.628906 16.914062 M 101.34375 40.90625 L 101.324219 41.125 L 101.316406 41.34375 L 101.328125 41.5625 L 101.359375 41.789062 L 101.414062 42.015625 L 101.488281 42.246094 L 101.585938 42.484375 L 101.714844 42.722656 L 101.871094 42.972656 L 102.0625 43.226562 L 102.28125 43.492188 L 102.539062 43.761719 C 102.199219 42.914062 101.800781 41.960938 101.34375 40.90625 M 53.441406 1.125 L 52.753906 1.128906 C 38.382812 1.753906 26.015625 7.003906 15.65625 16.886719 C 26.535156 7.351562 38.746094 2.441406 52.285156 2.160156 C 59.339844 2.207031 65.347656 3.273438 70.308594 5.355469 C 77.730469 8.324219 83.660156 11.898438 88.105469 16.070312 C 91.335938 19.101562 93.742188 21.792969 95.328125 24.140625 C 91.347656 18.539062 85.335938 13.703125 77.28125 9.625 C 68.527344 5.601562 59.980469 3.59375 51.644531 3.59375 C 40.367188 3.371094 30.019531 7.488281 20.597656 15.941406 C 30.324219 8.179688 41.195312 4.734375 53.214844 5.613281 C 67.183594 6.878906 78.90625 11.878906 88.386719 20.617188 C 93.550781 25.496094 97.867188 32.257812 101.34375 40.902344 C 102.015625 38.707031 102.203125 37.386719 101.914062 36.945312 C 103.296875 41.082031 104.113281 45.375 104.371094 49.828125 C 105.304688 62.414062 101.367188 74.277344 92.558594 85.414062 C 107.015625 69.089844 109.941406 50.890625 101.339844 30.820312 C 96.65625 21.238281 90.507812 14.234375 82.890625 9.8125 C 73.367188 4.109375 63.550781 1.214844 53.441406 1.125 M 92.542969 85.433594 L 92.179688 85.824219 C 91.082031 87.011719 89.90625 88.207031 88.652344 89.417969 L 89.503906 88.738281 L 89.6875 88.585938 C 89.742188 88.546875 89.957031 88.34375 90.332031 87.972656 C 90.644531 87.652344 90.988281 87.28125 91.363281 86.851562 L 91.9375 86.175781 L 92.542969 85.433594 M 17.203125 19.222656 L 16.308594 20.164062 C 6.140625 31.5625 1.609375 44.359375 2.714844 58.554688 C 1.078125 52.453125 1.164062 46.070312 2.96875 39.402344 C 4.714844 32.355469 7.625 26.207031 11.703125 20.96875 C 4.953125 28.71875 1.246094 38.636719 0.585938 50.730469 C 0.566406 52.914062 0.933594 55.644531 1.679688 58.929688 C 4.3125 68.28125 5.855469 73.242188 6.300781 73.816406 C 9.207031 80.429688 12.628906 85.566406 16.5625 89.226562 C 21.589844 93.929688 27.125 97.460938 33.167969 99.816406 C 39.269531 102.347656 45.050781 103.566406 50.507812 103.464844 C 58.316406 103.296875 65.660156 102.132812 72.53125 99.972656 C 77.519531 98.191406 82.890625 94.675781 88.644531 89.429688 C 82.691406 94.171875 77.574219 97.207031 73.289062 98.535156 C 65.273438 100.738281 57.871094 101.785156 51.085938 101.679688 C 46.832031 101.976562 40.773438 100.433594 32.910156 97.046875 C 27.167969 94.535156 22.425781 91.433594 18.683594 87.742188 C 15.691406 84.742188 13.417969 81.941406 11.863281 79.34375 C 16.496094 84.902344 23.214844 90.207031 32.023438 95.261719 C 36.257812 97.621094 40.472656 99.308594 44.667969 100.332031 C 45.75 100.578125 46.359375 100.667969 46.5 100.597656 C 46.574219 100.574219 46.566406 100.519531 46.476562 100.441406 C 46.660156 100.570312 46.941406 100.449219 47.308594 100.074219 C 47.621094 99.699219 47.828125 99.324219 47.921875 98.960938 C 42.363281 98.832031 33.800781 95.039062 22.230469 87.582031 C 15.628906 82.652344 10.660156 76.871094 7.324219 70.234375 C 4.167969 62.679688 3.488281 53.714844 5.28125 43.335938 C 6.601562 35.277344 10.574219 27.242188 17.203125 19.222656 " fill-opacity="1" fill-rule="nonzero"/></g></g></g></g></g><g mask="url(#2cf268f999)"><g transform="matrix(1, 0, 0, 1, 12, 2)"><g clip-path="url(#f9a4306a0f)"><g clip-path="url(#2cc886bc3f)"><g clip-path="url(#5400229821)"><g transform="matrix(1, 0, 0, 1, 2, 2)"><g clip-path="url(#a4edc93b3e)"><g clip-path="url(#930ff3a8f1)"><g clip-path="url(#a3e9e2e5e8)"><rect x="-98.3252" width="314.1504" fill="#ffffff" height="223.948797" y="-61.974399" fill-opacity="1"/></g></g></g></g></g></g></g></g></g><g clip-path="url(#2b8e2a06c5)"><g mask="url(#d07fc0a439)"><g transform="matrix(1, 0, 0, 1, 23, 0.000000000000016764)"><g clip-path="url(#c339196707)"><g clip-path="url(#39b9eec27a)"><g clip-path="url(#a10c0e3751)"><g transform="matrix(1, 0, 0, 1, 2, 1)"><g clip-path="url(#00af579a24)"><g clip-path="url(#bec4296672)"><g clip-path="url(#22beac0258)"><rect x="-109.3252" width="314.1504" fill="#ffffff" height="223.948797" y="-58.974399" fill-opacity="1"/></g></g></g></g></g></g></g></g></g></g><g clip-path="url(#aee7afc937)"><g transform="matrix(1, 0, 0, 1, 0, 44)"><g clip-path="url(#bea8ed7e32)"><g fill="#1a1a1b" fill-opacity="1"><g transform="translate(1.395043, 19.7968)"><g><path d="M 1.96875 0 L 1.96875 -14.09375 L 3.5 -14.09375 L 10.25 -2.625 L 10.25 -14.09375 L 10.78125 -14.09375 L 10.78125 0 L 10.25 0 L 10.25 -0.015625 L 2.5 -13.1875 L 2.5 0 Z M 1.96875 0 "/></g></g></g><g fill="#1a1a1b" fill-opacity="1"><g transform="translate(13.92603, 19.7968)"><g><path d="M 6.90625 0.21875 C 6 0.21875 5.171875 0.0507812 4.421875 -0.28125 C 3.671875 -0.625 3.070312 -1.125 2.625 -1.78125 C 2.1875 -2.4375 1.96875 -3.238281 1.96875 -4.1875 L 1.96875 -14.09375 L 3.28125 -14.09375 L 3.28125 -4.59375 C 3.28125 -3.695312 3.441406 -2.945312 3.765625 -2.34375 C 4.097656 -1.738281 4.535156 -1.28125 5.078125 -0.96875 C 5.628906 -0.664062 6.238281 -0.515625 6.90625 -0.515625 C 7.570312 -0.515625 8.207031 -0.640625 8.8125 -0.890625 C 9.425781 -1.148438 9.925781 -1.578125 10.3125 -2.171875 C 10.707031 -2.765625 10.90625 -3.570312 10.90625 -4.59375 L 10.90625 -14.09375 L 11.4375 -14.09375 L 11.4375 -4.140625 C 11.4375 -2.742188 11.015625 -1.664062 10.171875 -0.90625 C 9.335938 -0.15625 8.25 0.21875 6.90625 0.21875 Z M 6.90625 0.21875 "/></g></g></g><g fill="#1a1a1b" fill-opacity="1"><g transform="translate(27.319944, 19.7968)"><g><path d="M 1.96875 -14.09375 L 3.296875 -14.09375 L 8.203125 -0.71875 L 13.125 -14.09375 L 14.4375 -14.09375 L 14.4375 0.015625 L 13.125 0.015625 L 13.125 -12.5625 L 8.515625 0 L 7.0625 0 L 2.5 -12.4375 L 2.5 0 L 1.96875 0 Z M 1.96875 -14.09375 "/></g></g></g><g fill="#1a1a1b" fill-opacity="1"><g transform="translate(43.714251, 19.7968)"><g><path d="M 1.96875 0 L 6.28125 -14.078125 L 6.28125 -14.09375 L 7.671875 -14.09375 L 12.015625 0 L 10.609375 0 L 9.515625 -3.609375 L 3.625 -3.609375 L 2.515625 0 Z M 3.78125 -4.140625 L 9.34375 -4.140625 L 6.578125 -13.171875 Z M 3.78125 -4.140625 "/></g></g></g><g fill="#1a1a1b" fill-opacity="1"><g transform="translate(57.696484, 19.7968)"><g/></g></g><g fill="#1a1a1b" fill-opacity="1"><g transform="translate(68.090005, 19.7968)"><g><path d="M 5.53125 0 L 5.53125 -13.5625 L 1.96875 -13.5625 L 1.96875 -14.09375 L 10.4375 -14.09375 L 10.4375 -13.5625 L 6.875 -13.5625 L 6.875 0 Z M 5.53125 0 "/></g></g></g><g fill="#1a1a1b" fill-opacity="1"><g transform="translate(79.699056, 19.7968)"><g><path d="M 1.96875 0 L 1.96875 -14.09375 L 6.90625 -14.09375 C 7.550781 -14.09375 8.160156 -13.9375 8.734375 -13.625 C 9.304688 -13.320312 9.769531 -12.898438 10.125 -12.359375 C 10.488281 -11.828125 10.671875 -11.203125 10.671875 -10.484375 C 10.671875 -9.785156 10.488281 -9.15625 10.125 -8.59375 C 9.769531 -8.039062 9.300781 -7.601562 8.71875 -7.28125 C 8.132812 -6.96875 7.519531 -6.8125 6.875 -6.8125 L 11.71875 0 L 10.265625 0 L 5.390625 -6.8125 L 3.28125 -6.8125 L 3.28125 0 Z M 3.28125 -7.34375 L 6.65625 -7.34375 C 7.15625 -7.34375 7.601562 -7.5 8 -7.8125 C 8.40625 -8.125 8.726562 -8.519531 8.96875 -9 C 9.21875 -9.488281 9.34375 -9.984375 9.34375 -10.484375 C 9.34375 -10.972656 9.21875 -11.453125 8.96875 -11.921875 C 8.726562 -12.398438 8.40625 -12.789062 8 -13.09375 C 7.601562 -13.40625 7.15625 -13.5625 6.65625 -13.5625 L 3.28125 -13.5625 Z M 3.28125 -7.34375 "/></g></g></g><g fill="#1a1a1b" fill-opacity="1"><g transform="translate(92.582785, 19.7968)"><g><path d="M 1.96875 0 L 6.28125 -14.078125 L 6.28125 -14.09375 L 7.671875 -14.09375 L 12.015625 0 L 10.609375 0 L 9.515625 -3.609375 L 3.625 -3.609375 L 2.515625 0 Z M 3.78125 -4.140625 L 9.34375 -4.140625 L 6.578125 -13.171875 Z M 3.78125 -4.140625 "/></g></g></g><g fill="#1a1a1b" fill-opacity="1"><g transform="translate(105.191741, 19.7968)"><g><path d="M 6.421875 0 L 1.96875 -14.09375 L 3.359375 -14.09375 L 7.515625 -0.9375 L 11.65625 -14.09375 L 12.203125 -14.09375 L 7.8125 0 Z M 6.421875 0 "/></g></g></g><g fill="#1a1a1b" fill-opacity="1"><g transform="translate(118.761918, 19.7968)"><g><path d="M 1.96875 0 L 1.96875 -14.09375 L 9.9375 -14.09375 L 9.9375 -13.5625 L 3.296875 -13.5625 L 3.296875 -7.40625 L 8.609375 -7.40625 L 8.609375 -6.875 L 3.296875 -6.875 L 3.296875 -0.53125 L 10.34375 -0.53125 L 10.34375 0 Z M 1.96875 0 "/></g></g></g><g fill="#1a1a1b" fill-opacity="1"><g transform="translate(130.861472, 19.7968)"><g><path d="M 1.96875 0 L 1.96875 -14.09375 L 3.296875 -14.09375 L 3.296875 -0.53125 L 10.328125 -0.53125 L 10.328125 0 Z M 1.96875 0 "/></g></g></g></g></g></g></g></g></g></svg>